<?xml version="1.0" standalone="no"?>
<!DOCTYPE svg PUBLIC "-//W3C//DTD SVG 20010904//EN"
 "http://www.w3.org/TR/2001/REC-SVG-20010904/DTD/svg10.dtd">
<svg version="1.0" xmlns="http://www.w3.org/2000/svg"
 width="500.000000pt" height="500.000000pt" viewBox="0 0 500.000000 500.000000"
 preserveAspectRatio="xMidYMid meet">
<metadata>
Created by potrace 1.14, written by Peter Selinger 2001-2017
</metadata>
<g transform="translate(0.000000,500.000000) scale(0.100000,-0.100000)"
fill="#000000" stroke="none">
<path d="M3230 3360 l0 -1040 -495 0 -495 0 0 -275 0 -275 493 -2 492 -3 3
-582 2 -583 269 0 269 0 3 683 c2 375 2 1230 0 1900 l-3 1217 -269 0 -269 0 0
-1040z"/>
<path d="M1223 3343 c4 -223 7 -932 7 -1575 l0 -1168 270 0 270 0 0 1300 0
1300 495 0 495 0 0 275 0 275 -772 0 -771 0 6 -407z"/>
</g>
</svg>
